<svg xmlns="http://www.w3.org/2000/svg" version="1.1" xmlns:xlink="http://www.w3.org/1999/xlink" width="512.0px" height="512.0px"><svg height="512.0px" stroke-miterlimit="10" style="fill-rule:nonzero;clip-rule:evenodd;stroke-linecap:round;stroke-linejoin:round;" version="1.1" viewBox="0 0 512 512" width="512.0px" xml:space="preserve" xmlns="http://www.w3.org/2000/svg" xmlns:xlink="http://www.w3.org/1999/xlink">
<defs></defs>
<g id="SvgjsG1011">
<path d="M10.7 256C10.7 120.525 120.525 10.7 256 10.7C391.475 10.7 501.3 120.525 501.3 256C501.3 391.475 391.475 501.3 256 501.3C120.525 501.3 10.7 391.475 10.7 256Z" fill="#000000" fill-rule="nonzero" opacity="1" stroke="none"></path>
<g opacity="1">
<path d="M154.212 75.1983L257.956 174.862L357.788 75.1983L357.788 80.1212L357.788 85.044L257.956 185.317L154.212 85.044L154.212 80.1212L154.212 75.1983Z" fill="#ffffff" fill-rule="nonzero" opacity="1" stroke="#ffffff" stroke-linecap="butt" stroke-linejoin="miter" stroke-width="2.72032"></path>
<path d="M154.212 108.014L257.956 207.677L357.788 108.014L357.788 112.937L357.788 117.859L257.956 218.132L154.212 117.859L154.212 112.937L154.212 108.014Z" fill="#ffffff" fill-rule="nonzero" opacity="1" stroke="#ffffff" stroke-linecap="butt" stroke-linejoin="miter" stroke-width="2.72032"></path>
<path d="M154.212 139.995L257.956 239.659L357.788 139.995L357.788 144.918L357.788 149.841L257.956 250.114L154.212 149.841L154.212 144.918L154.212 139.995Z" fill="#ffffff" fill-rule="nonzero" opacity="1" stroke="#ffffff" stroke-linecap="butt" stroke-linejoin="miter" stroke-width="2.72032"></path>
<path d="M154.212 236.993L251.441 236.993L251.441 240.72L251.441 244.448L154.212 244.448L154.212 240.72L154.212 236.993Z" fill="#ffffff" fill-rule="nonzero" opacity="1" stroke="#ffffff" stroke-linecap="butt" stroke-linejoin="miter" stroke-width="2.72032"></path>
<path d="M263.181 236.993L357.788 236.993L357.788 240.72L357.788 244.448L263.181 244.448L263.181 240.72L263.181 236.993Z" fill="#ffffff" fill-rule="nonzero" opacity="1" stroke="#ffffff" stroke-linecap="butt" stroke-linejoin="miter" stroke-width="2.72032"></path>
<path d="M154.212 216.596L232.338 216.596L232.338 220.323L232.338 224.051L154.212 224.051L154.212 220.323L154.212 216.596Z" fill="#ffffff" fill-rule="nonzero" opacity="1" stroke="#ffffff" stroke-linecap="butt" stroke-linejoin="miter" stroke-width="2.72032"></path>
<path d="M282.209 216.596L357.788 216.596L357.788 220.323L357.788 224.051L282.209 224.051L282.209 220.323L282.209 216.596Z" fill="#ffffff" fill-rule="nonzero" opacity="1" stroke="#ffffff" stroke-linecap="butt" stroke-linejoin="miter" stroke-width="2.72032"></path>
<path d="M154.212 278.397L231.213 278.397L283.002 278.397L357.788 278.397L357.788 282.124L357.788 285.852L283.002 285.852L231.213 285.852L154.212 285.852L154.212 282.124L154.212 278.397Z" fill="#ffffff" fill-rule="nonzero" opacity="1" stroke="#ffffff" stroke-linecap="butt" stroke-linejoin="miter" stroke-width="2.72032"></path>
<path d="M154.212 257.389L357.788 257.389L357.788 261.117L357.788 264.844L154.212 264.844L154.212 261.117L154.212 257.389Z" fill="#ffffff" fill-rule="nonzero" opacity="1" stroke="#ffffff" stroke-linecap="butt" stroke-linejoin="miter" stroke-width="2.72032"></path>
</g>
<g opacity="1">
<g opacity="1">
<path d="M77.5753 326.647L99.4433 326.343L100.084 358.61L122.04 326.576L141.729 326.576L125.071 358.61L131.739 359.048L143.435 402.818L120.586 402.888L111.423 365.658L100.084 365.658L99.6217 402.943L78.3005 402.888L77.5753 326.647Z" fill="#ffffff" fill-rule="nonzero" opacity="1" stroke="none"></path>
<path d="M403.937 324.175L403.937 346.193L382.154 346.193L381.949 330.744C381.949 330.744 376.338 330.789 373.429 330.781C372.439 330.778 371.449 330.773 370.459 330.768C369.039 330.76 367.619 330.756 366.199 330.754C365.754 330.75 365.309 330.747 364.85 330.744C363.784 330.743 361.011 330.816 361.011 330.816C361.011 330.816 360.942 336.044 360.948 337.125C360.949 337.693 360.95 338.261 360.951 338.846C360.955 340.668 360.963 342.489 360.971 344.311C360.974 345.542 360.977 346.774 360.98 348.006C360.987 351.032 360.948 357.084 360.948 357.084L385.357 357.084L385.357 362.536L360.948 362.794L361.011 394.549L381.949 394.549L381.949 378.868L403.937 378.868L403.937 400.898L339.227 400.898L339.227 324.243L403.937 324.175Z" fill="#ffffff" fill-rule="nonzero" opacity="1" stroke="none"></path>
<path d="M271.084 322.552L271.084 343.788L249.3 343.788C249.3 343.788 249.442 332.753 249.3 329.052C243.169 329.052 230.72 329.052 230.72 329.052L230.72 391.84L249.82 391.84L249.82 376.712L271.206 376.712L271.206 398.888L209.115 399.134L208.034 322.411L271.084 322.552Z" fill="#ffffff" fill-rule="nonzero" opacity="1" stroke="none"></path>
<path d="M118.83 332.738C119.253 333.161 119.675 333.584 120.111 334.02C119.871 335.261 119.871 335.261 119.47 336.582C119.47 337.217 119.47 337.851 119.47 338.504C118.579 340.288 117.449 340.413 115.626 341.067C114.986 339.145 114.986 339.145 115.764 337.556C116.128 336.984 116.492 336.411 116.868 335.821C117.23 335.244 117.593 334.667 117.966 334.072C118.251 333.632 118.536 333.192 118.83 332.738Z" fill="#ffffff" fill-rule="nonzero" opacity="1" stroke="none"></path>
</g>
<path d="M154.9 378.596L177.202 378.596L177.202 400.898L154.9 400.898L154.9 378.596Z" fill="#ffffff" fill-rule="nonzero" opacity="1" stroke="none"></path>
<path d="M281.091 378.596L303.393 378.596L303.393 400.898L281.091 400.898L281.091 378.596Z" fill="#ffffff" fill-rule="nonzero" opacity="1" stroke="none"></path>
<path d="M412.123 378.596L434.425 378.596L434.425 400.898L412.123 400.898L412.123 378.596Z" fill="#ffffff" fill-rule="nonzero" opacity="1" stroke="none"></path>
</g>
</g>
</svg><style>@media (prefers-color-scheme: light) { :root { filter: none; } }
@media (prefers-color-scheme: dark) { :root { filter: none; } }
</style></svg>