<svg xmlns="http://www.w3.org/2000/svg" version="1.1" xmlns:xlink="http://www.w3.org/1999/xlink" width="512.0px" height="512.0px"><svg height="512.0px" stroke-miterlimit="10" style="fill-rule:nonzero;clip-rule:evenodd;stroke-linecap:round;stroke-linejoin:round;" version="1.1" viewBox="0 0 512 512" width="512.0px" xml:space="preserve" xmlns="http://www.w3.org/2000/svg" xmlns:xlink="http://www.w3.org/1999/xlink">
<defs></defs>
<g id="SvgjsG1019">
<path d="M2 43.0891C2 20.3962 20.3962 2 43.0891 2L468.911 2C491.604 2 510 20.3962 510 43.0891L510 468.911C510 491.604 491.604 510 468.911 510L43.0891 510C20.3962 510 2 491.604 2 468.911L2 43.0891Z" fill="#000000" fill-rule="nonzero" opacity="1" stroke="none"></path>
<g opacity="1">
<path d="M57.7025 50.8092L259.81 244.968L454.297 50.8092L454.297 60.3996L454.297 69.99L259.81 265.335L57.7025 69.99L57.7025 60.3996L57.7025 50.8092Z" fill="#ffffff" fill-rule="nonzero" opacity="1" stroke="#ffffff" stroke-linecap="butt" stroke-linejoin="miter" stroke-width="5.29956"></path>
<path d="M57.7025 114.738L259.81 308.897L454.297 114.738L454.297 124.329L454.297 133.919L259.81 329.264L57.7025 133.919L57.7025 124.329L57.7025 114.738Z" fill="#ffffff" fill-rule="nonzero" opacity="1" stroke="#ffffff" stroke-linecap="butt" stroke-linejoin="miter" stroke-width="5.29956"></path>
<path d="M57.7025 177.042L259.81 371.2L454.297 177.042L454.297 186.632L454.297 196.223L259.81 391.568L57.7025 196.223L57.7025 186.632L57.7025 177.042Z" fill="#ffffff" fill-rule="nonzero" opacity="1" stroke="#ffffff" stroke-linecap="butt" stroke-linejoin="miter" stroke-width="5.29956"></path>
<path d="M57.7025 366.007L247.118 366.007L247.118 373.269L247.118 380.53L57.7025 380.53L57.7025 373.269L57.7025 366.007Z" fill="#ffffff" fill-rule="nonzero" opacity="1" stroke="#ffffff" stroke-linecap="butt" stroke-linejoin="miter" stroke-width="5.29956"></path>
<path d="M269.989 366.007L454.297 366.007L454.297 373.269L454.297 380.53L269.989 380.53L269.989 373.269L269.989 366.007Z" fill="#ffffff" fill-rule="nonzero" opacity="1" stroke="#ffffff" stroke-linecap="butt" stroke-linejoin="miter" stroke-width="5.29956"></path>
<path d="M57.7025 326.271L209.903 326.271L209.903 333.533L209.903 340.795L57.7025 340.795L57.7025 333.533L57.7025 326.271Z" fill="#ffffff" fill-rule="nonzero" opacity="1" stroke="#ffffff" stroke-linecap="butt" stroke-linejoin="miter" stroke-width="5.29956"></path>
<path d="M307.059 326.271L454.297 326.271L454.297 333.533L454.297 340.795L307.059 340.795L307.059 333.533L307.059 326.271Z" fill="#ffffff" fill-rule="nonzero" opacity="1" stroke="#ffffff" stroke-linecap="butt" stroke-linejoin="miter" stroke-width="5.29956"></path>
<path d="M57.7025 446.668L207.711 446.668L308.603 446.668L454.297 446.668L454.297 453.929L454.297 461.191L308.603 461.191L207.711 461.191L57.7025 461.191L57.7025 453.929L57.7025 446.668Z" fill="#ffffff" fill-rule="nonzero" opacity="1" stroke="#ffffff" stroke-linecap="butt" stroke-linejoin="miter" stroke-width="5.29956"></path>
<path d="M57.7025 405.743L454.297 405.743L454.297 413.004L454.297 420.266L57.7025 420.266L57.7025 413.004L57.7025 405.743Z" fill="#ffffff" fill-rule="nonzero" opacity="1" stroke="#ffffff" stroke-linecap="butt" stroke-linejoin="miter" stroke-width="5.29956"></path>
</g>
</g>
</svg><style>@media (prefers-color-scheme: light) { :root { filter: none; } }
@media (prefers-color-scheme: dark) { :root { filter: none; } }
</style></svg>